# xmcd CD database file
#
# Track frame offsets:
#	150
#	24942
#	46419
#	70933
#	89017
#	108455
#	129883
#
# Disc length: 2039 seconds
#
# Revision: 5
# Processed by: cddbd v1.5.2PL0 Copyright (c) Steve Scherf et al.
# Submitted via: CDex 1.70beta3
#
DISCID=5607f507
DTITLE=TEE - Baby I Love You
DYEAR=2011
DGENRE=Reggae
TTITLE0=ベイビー・アイラブユー (love with シェネル)
TTITLE1=雨~u still love me?
TTITLE2=電話で抱きしめて
TTITLE3=愛し続けるから
TTITLE4=HELP!
TTITLE5=心フラワー
TTITLE6=ベイビー・アイラブユー (Single Ver.)
EXTD=YEAR: 2011
EXTT0=
EXTT1=
EXTT2=
EXTT3=
EXTT4=
EXTT5=
EXTT6=
PLAYORDER=
